# xmcd
#
# Track frame offsets:
#	150
#	17768
#	33908
#	52547
#	69499
#	83028
#	104191
#	124670
#	141756
#	157593
#	169647
#	186929
#	201476
#	215567
#
# Disc length: 3067 seconds
#
# Revision: 1
# Processed by: cddbd v1.5.1PL0 Copyright (c) Steve Scherf et al.
# Submitted via: audiograbber 1.83.01
#
DISCID=ba0bf90e
DTITLE=Various Artist - SD116
DYEAR=1900
DGENRE=Karaoke Country
TTITLE0=George Strait - Desperately
TTITLE1=Shania Twain - It ONly Hurts When I'm Breathing
TTITLE2=Diamond Rio - We All Fall Down
TTITLE3=Reba McEntire - Somebody
TTITLE4=Billy Currington - I Got A Feelin'
TTITLE5=Wynonna - Flies On The Butter
TTITLE6=Chris Cagle - I'd Be Lyin'
TTITLE7=Jimmy Wayne - Paper Angels
TTITLE8=Emerson Drive - Last One STanding
TTITLE9=Craig Morgan - Look At Us
TTITLE10=Big and Rich - Wild West Show
TTITLE11=David Lee Murphy - Loco
TTITLE12=Alison Drauss and James Taylor - How's The World Treating You
TTITLE13=Jeff Bates - I Wanna Make You Cry
EXTD=
EXTT0=
EXTT1=
EXTT2=
EXTT3=
EXTT4=
EXTT5=
EXTT6=
EXTT7=
EXTT8=
EXTT9=
EXTT10=
EXTT11=
EXTT12=
EXTT13=
PLAYORDER=
